<?xml version="1.0" encoding="UTF-8"?> <!-- Generator: Adobe Illustrator 25.2.1, SVG Export Plug-In . SVG Version: 6.00 Build 0) --> <svg xmlns="http://www.w3.org/2000/svg" xmlns:xlink="http://www.w3.org/1999/xlink" id="Слой_1" x="0px" y="0px" viewBox="0 0 2329.69 1037.41" style="enable-background:new 0 0 2329.69 1037.41;" xml:space="preserve"> <style type="text/css"> .st0{fill:#C3A255;} .st1{fill:#FFFFFF;} </style> <g> <g> <polygon class="st0" points="438.36,802.14 232.91,970.48 232.91,0 438.36,163.27 "></polygon> <polygon class="st1" points="0,891.38 205.45,1037.41 205.45,201.8 0,341.3 "></polygon> <polygon class="st1" points="671.28,891.38 465.83,1037.41 465.83,201.8 671.28,341.3 "></polygon> <path d="M431.88,539.76h-3.94l-24.25-75.3c0.74,0.04,1.48,0.07,2.25,0.07v-4.26c0,0-7.53,2.29-24.22-10.77 c-16.69-13.1-22.92-14.08-33.06-11.79c-3.84,0.84-6.65,2.82-8.66,4.89v-17.32l12.46-12.46l-16.83-16.79l-16.79,16.79l12.43,12.46 v17.32c-2.01-2.08-4.82-4.05-8.66-4.89c-10.14-2.29-16.37-1.3-33.06,11.79c-16.69,13.06-24.22,10.77-24.22,10.77v4.26 c0.77,0,1.51-0.04,2.25-0.07l-24.25,75.3h-3.94c-0.04,0.77-0.07,1.55-0.07,2.32c0,16.86,13.66,30.56,30.52,30.56 s30.52-13.69,30.52-30.56c0-0.77-0.04-1.55-0.07-2.32h-3.8l-24.4-75.86c11.65-2.01,20.98-8.77,25.45-12.6 c3.41-2.89,7.46-5.03,11.83-5.77c10.07-1.76,17.57,3.06,21.9,7.15v103.5h-4.75v52.38h-10.84c-31.01,0-37.07,15.28-37.07,15.28 h-5.98v12.92h124.05v-12.92h-4.96c0,0-6.05-15.28-37.07-15.28h-9.89v-52.38H340v-103.5c4.33-4.08,11.83-8.91,21.9-7.15 c4.37,0.74,8.41,2.89,11.83,5.77c4.47,3.84,13.8,10.6,25.45,12.6l-24.4,75.86h-3.8c-0.04,0.77-0.07,1.55-0.07,2.32 c0,16.86,13.66,30.56,30.52,30.56c16.86,0,30.52-13.69,30.52-30.56C431.95,541.31,431.92,540.54,431.88,539.76z M292.8,539.76 h-45.76l22.88-71.04L292.8,539.76z M378.48,539.76l22.88-71.04l22.88,71.04H378.48z"></path> <g> <path d="M511.55,792.01c19.37-18.3,35.54-39.09,48.18-62.56c1.79-3.32,4.05-5.77,7.29-7.57c5.94-3.3,12-5.48,19.01-3.98 c11.22,2.4,21.3-0.05,30.03-7.68c2.77-2.42,5.66-4.7,8.43-7.12c7.56-6.63,15.03-13.39,22.65-19.95 c5.5-4.74,12.07-7.29,19.19-8.45c1.65-0.27,3.31-0.47,4.96-0.7c-0.81-0.57-1.61-0.66-2.41-0.64c-7.96,0.29-15.93,0.43-23.87,0.97 c-10.01,0.68-19.99,1.33-29.91,3.49c-13.33,2.9-24.4,8.94-32.46,19.99c-3.29,4.51-6.09,9.39-9.07,14.13 c-2.21,3.5-5.2,6.16-9.19,8.84c0.62-1.33,0.94-2.02,1.26-2.7c13.63-28.69,21.47-58.86,23.29-90.59c0.05-0.9,0.36-1.93,0.91-2.63 c3.53-4.47,7.57-8.08,13.87-7.46c0.77,0.08,1.58-0.08,2.34-0.23c6.83-1.34,12.01-4.96,15.39-11.13 c5.67-10.34,11.3-20.71,17.13-30.96c2.63-4.63,6.8-7.68,11.67-9.78c0.7-0.3,1.37-0.69,2.05-1.03c-0.09-0.21-0.18-0.43-0.27-0.64 c-7.94,2.6-15.84,5.31-23.83,7.75c-7.65,2.34-14.37,6.35-20.74,11.01c-1.86,1.36-3.46,3.21-4.86,5.06 c-5.15,6.8-7.36,14.78-8.97,22.99c-0.76,3.88-1.47,7.8-4.29,11.41c0-1.29,0.03-2.14,0-2.98c-0.52-11.19-0.55-22.43-1.68-33.56 c-1.79-17.71-6.12-34.92-12.05-51.71c-0.23-0.65-0.49-1.34-0.48-2.01c0.12-7.31,6.58-14.39,13.75-15.72 c6.86-1.27,12.22-4.82,14.34-11.88c1.86-6.18,3.43-12.45,5.14-18.68c1.64-5.97,2.77-12.2,6.88-17.09 c2.09-2.48,4.82-4.41,7.31-6.64c-1.35,0.56-2.79,1.08-4.16,1.75c-11.04,5.4-22.56,9.86-31.96,18.27 c-4.71,4.21-7.83,9.12-8.52,15.15c-0.69,5.95-0.44,12.03-0.36,18.05c0.06,4.6-1.78,8.29-4.52,12.1 c-8.07-20.3-18.51-38.73-31.28-55.86c-0.81-1.09-1.42-2.41-1.82-3.72c-2.26-7.36-2-14.24,2.55-21c3.7-5.5,5.13-11.89,2.88-18.53 c-1.96-5.78-4.03-11.53-6.08-17.28c-2.18-6.09-4.59-12.16-3.92-18.81c0.29-2.86,1-5.68,1.52-8.52 c-5.15,13.15-10.99,26.01-13.62,40.04c-2.07,11,0.54,20.39,7.83,28.67c1.04,1.18,2.25,2.31,2.94,3.68 c1.46,2.88,2.62,5.92,3.9,8.89c-0.28,0.14-0.55,0.28-0.83,0.42c-0.57-0.61-1.19-1.2-1.72-1.85 c-13.37-16.37-28.66-30.69-45.55-43.38c-7.65-5.75-11.09-13.28-9.42-23.14c1.11-6.55,0.02-13-4.67-18.21 c-4.1-4.55-8.41-8.91-12.59-13.39c-4.66-4.99-9.48-9.9-11.19-16.84c-0.55-2.23-0.87-4.52-1.3-6.78 c-0.42,0.72-0.44,1.39-0.41,2.06c0.35,7.35,0.76,14.7,1.07,22.05c0.35,8.36,1.89,16.49,4.56,24.4c0.58,1.71,1.51,3.33,2.48,4.87 c4.01,6.36,10.32,9.71,16.78,13c2.64,1.35,4.81,3.62,7.2,5.47c-0.19,0.25-0.38,0.5-0.58,0.76c-1.42-0.95-2.84-1.9-4.27-2.85 c-12.28-8.13-25.27-14.93-38.57-21.2c-7.54-3.55-14.13-8.12-18.48-15.68c-3.13-5.45-7.63-9.81-14.08-11.49 c-4.9-1.28-9.76-2.7-14.67-3.92c-7.64-1.9-15.37-3.52-21.42-9.13c-1.36-1.26-2.74-2.51-4.12-3.76c2.19,3.5,4.5,6.96,6.97,10.29 c6.55,8.87,12.7,18.1,21.45,25.06c2.3,1.83,4.8,3.51,7.44,4.77c6.11,2.91,12.63,2.96,19.27,2.52c3.05-0.2,6.48-0.11,9.19,1.09 c9.81,4.33,19.39,9.19,29.05,13.86c0.36,0.18,0.68,0.46,1.49,1.02c-1.16-0.08-1.73-0.12-2.3-0.17 c-5.24-0.44-9.15-3.68-13.34-6.35c-8.6-5.49-17.78-7.42-28.01-5.86c-11.94,1.82-23.17,5.83-34.48,9.71 c-5.04,1.73-10.01,3.64-15.01,5.47c0.74,0.39,1.33,0.29,1.89,0.12c5.93-1.83,11.98-2.7,18.09-1.28 c7.05,1.64,13.99,3.74,21.04,5.4c5.34,1.26,10.74,2.75,16.18,3.03c6.66,0.34,12.66-2.48,18.58-5.58 c8.71-4.57,17.68-4.5,26.18,0.79c11.25,7,21.73,15.05,31.59,23.89c5.96,5.35,11.61,11.04,17.89,17.06 c-1.05-0.09-1.3-0.07-1.53-0.13c-5.05-1.37-8.46-5.06-12.07-8.5c-7.39-7.05-16.07-10.62-26.45-10.91 c-14.66-0.41-28.89,2.38-43.22,4.61c-2.9,0.45-5.78,1.08-8.67,1.63l0.05,0.66c9.76-1.98,18.74,0.44,27.41,4.6 c6.3,3.02,12.61,6.02,18.88,9.1c8.87,4.35,17.88,4.3,26.94,0.84c4.14-1.58,8.34-1.85,12.64-1.25c4.88,0.68,8.89,2.57,12.25,6.63 c13.56,16.4,25.34,33.9,34.49,53.14c0.97,2.03,1.88,4.08,3.1,6.75c-4.97-3.42-6.69-5.51-8.64-10.2c-0.97-2.34-1.89-4.7-2.88-7.03 c-3.08-7.23-7.73-13.43-14.77-16.81c-5.67-2.72-11.98-4.46-18.2-5.6c-7.89-1.45-15.96-1.96-23.97-2.68 c-5.2-0.46-10.44-0.57-15.66-0.83c3.42,1.18,6.92,1.87,10.2,3.12c7.22,2.76,11.94,8.67,16.95,14.16 c3.96,4.33,7.88,8.69,11.7,13.14c6.9,8.04,15.71,10.2,25.8,8.65c9.19-1.41,19.83,4.64,23.3,13.34 c9.51,23.84,14.57,48.67,16.08,74.25c0.21,3.51,0.03,7.04,0.03,11.03c-2.88-3.61-4.7-7.11-5.14-11.24 c-0.36-3.48-0.62-6.98-1.15-10.44c-1.32-8.64-4.52-16.6-11.5-22.03c-5.41-4.21-11.41-8.01-17.71-10.61 c-12.42-5.11-25.23-9.24-37.88-13.77c-0.32-0.11-0.69-0.1-1.09-0.15c0.05,0.32,0.04,0.46,0.08,0.48 c0.72,0.31,1.46,0.57,2.17,0.89c5.27,2.37,10.17,5.4,13.27,10.35c3.24,5.16,5.95,10.67,8.76,16.09 c3.1,5.97,5.98,12.05,9.09,18.01c4.38,8.4,12.02,12.28,20.87,13.09c8.72,0.8,14.71,4.98,19.12,12.05 c0.74,1.18,1.24,2.79,1.15,4.15c-0.55,8.64-1,17.31-2.05,25.9c-3.13,25.57-10.77,49.81-22.08,72.91 c-0.31,0.63-0.69,1.22-1.24,2.18c-1.68-6.45-2.29-12.35-0.21-18.32c1.43-4.12,2.82-8.28,3.84-12.52 c2.27-9.39,2.56-18.93-1.69-27.74c-3.13-6.5-6.85-13.01-11.61-18.35c-10.66-11.94-22.13-23.16-33.29-34.65 c-0.17-0.18-0.54-0.18-1.36-0.43c0.96,1.09,1.53,1.73,2.1,2.37c4.18,4.75,7.56,10.13,8.55,16.31c1.15,7.13,1.31,14.45,1.6,21.69 c0.28,6.91,0.26,13.83,0.23,20.74c-0.06,13.64,6.12,23.54,17.82,30.22c5.47,3.12,8.16,8.31,9.81,14.05 c1.89,6.54,1.8,12.55-2.1,18.97c-11.76,19.35-25.35,37.15-41.57,52.93c-4.37,4.25-8.98,8.23-14.02,12.81 c1.11-6.58,3.07-11.85,6.78-16.52c4.51-5.68,9.22-11.29,12.98-17.46c4.97-8.17,8.15-17.26,6.96-26.96 c-0.98-7.95-2.09-16.18-5.04-23.52c-7.03-17.48-15.19-34.51-22.92-51.72c-0.1-0.23-0.45-0.34-1.23-0.89 c0.6,1.56,0.95,2.51,1.33,3.45c2.79,6.99,4.02,14.38,2.55,21.63c-1.57,7.74-4.33,15.27-6.89,22.78 c-3.27,9.58-6.92,19.03-10.29,28.57c-4.38,12.43-0.82,23.33,6.63,33.45c1.75,2.38,3.74,4.71,4.93,7.37 c2.83,6.31,2.5,12.93,1.15,19.58c-0.44,2.18-1.39,3.77-3.17,5.15c-9.03,6.97-18.46,13.26-28.24,18.96 c0.95,1.74,1.6,3.66,1.95,5.63c13.42-7.74,26.16-16.62,38.13-26.77c0.66-0.56,1.36-1.18,2.15-1.48 c12.33-4.71,24.25-6.45,36.1,2.09c8.03,5.79,17.72,8.49,27.4,5.92c10.4-2.77,20.37-7.21,30.49-11.01 c7.59-2.85,15.09-5.96,22.72-8.7c9.3-3.34,18.71-2.91,28.09-0.12c0.91,0.27,1.86,0.43,3.1,0.72c-0.35-0.53-0.4-0.75-0.53-0.8 c-1.36-0.6-2.7-1.24-4.09-1.74c-21.39-7.75-42.18-17.47-65.17-19.94c-4.77-0.51-9.65-1.45-14.34-0.95 c-10.06,1.07-19.31,4.82-27.41,10.99c-4.94,3.77-9.58,7.92-14.43,11.8c-4.58,3.67-9.99,5.32-15.78,6.31 c0.07-0.35,0.05-0.46,0.1-0.51C510.41,793.1,510.98,792.55,511.55,792.01z"></path> <path d="M248.59,386.53c7.77,1,14.65-2.58,20.56-8.12c10.67-10,18.2-22.36,26.44-34.2c0.09-0.13-0.05-0.42-0.13-1.01 c-4.63,6.75-11.16,10.06-18.51,12.05c-6.15,1.66-12.27,3.45-18.46,4.91c-7.06,1.67-12.15,5.99-15.5,12.04 c-4.18,7.55-10.73,12-18,15.87c-10.1,5.38-20.16,10.82-30.14,16.43c-3.91,2.2-7.54,4.92-11.56,7.58c2-4.05,5.39-5.92,8.93-7.63 c4.69-2.26,8.84-5.14,12.26-9.23c5.25-6.27,6.54-13.98,7.47-21.5c1.35-10.93,1.52-22,2.17-33.01c0.02-0.4-0.15-0.82-0.23-1.23 c-0.46,0.45-0.59,0.85-0.62,1.26c-0.37,5.65-2.01,10.85-5.77,15.15c-5.3,6.06-10.61,12.12-16.13,17.97 c-5.9,6.24-7.71,13.61-6.42,21.81c1.47,9.31-2.09,16.46-9.17,22.01c-10.71,8.39-20.92,17.32-30.16,27.3 c-5.39,5.83-10.52,11.9-15.91,18.03c0.06-0.72,0.09-1.28,0.16-1.85c0.62-5.18,3.99-8.81,7.02-12.65 c5.92-7.52,8.11-15.85,6.69-25.53c-1.59-10.86-5.57-20.9-9.06-31.13c-1.19-3.49-2.62-6.91-3.94-10.35 c-0.37,0.55-0.38,0.98-0.26,1.37c1.76,5.56,2.11,11.18,0.29,16.77c-2.53,7.8-5.1,15.6-7.9,23.3c-3.03,8.33-1.53,15.88,2.91,23.28 c4.86,8.11,3.86,16.19-0.95,23.98c-1.7,2.75-3.68,5.33-5.47,8.02c-9.69,14.6-17.62,30.11-24.1,46.85 c-2.32-3.6-4.33-6.95-4.31-11.04c0.03-4.55,0.59-9.12,0.38-13.65c-0.38-8.19-2.96-15.31-9.42-21.11 c-7.59-6.81-16.68-10.82-25.47-15.46c-2.97-1.57-6.1-2.84-9.16-4.24c-0.15,0.17-0.3,0.35-0.46,0.52 c8.43,3.83,11.1,11.48,13.26,19.44c2.05,7.58,3.86,15.24,6.05,22.78c1.96,6.73,6.97,10.43,13.64,11.53 c5.18,0.86,8.63,3.56,10.86,8.06c0.93,1.87,1.73,3.84,2.2,5.86c0.31,1.34,0.27,2.96-0.17,4.26 c-9.46,27.78-13.82,56.33-13.12,85.67c0.02,0.62,0,1.25,0,1.87c-0.24,0.05-0.47,0.09-0.71,0.14c-0.87-2.33-1.93-4.61-2.58-6.99 c-0.89-3.28-1.45-6.66-2.18-9.99c-1.64-7.47-4.19-14.88-9.81-19.96c-5.22-4.72-11.6-8.45-18.01-11.46 c-6.99-3.28-14.6-5.25-21.97-7.73c-1.83-0.62-3.73-1-5.61-1.5c4.72,2.21,8.96,5.01,11.88,9.24c2.87,4.16,5.3,8.64,7.7,13.1 c3.81,7.07,7.28,14.34,11.2,21.35c3.3,5.9,8.69,9.4,15.38,9.46c6.23,0.06,10.47,2.81,13.93,7.44c0.63,0.84,0.97,2.03,1.09,3.09 c0.58,5.48,0.92,10.99,1.56,16.47c2.79,23.78,9.12,46.6,18.61,68.56c1.08,2.5,2.23,4.98,3.34,7.47c-0.26,0.2-0.52,0.39-0.79,0.59 c-2.63-2.98-5.46-5.81-7.82-8.99c-2.08-2.79-3.62-5.98-5.43-8.97c-5.45-9.05-12.36-16.93-22.22-20.84 c-7.71-3.06-16.05-4.9-24.28-6.17c-8.88-1.38-17.95-1.6-26.94-2.08c-5.12-0.27-10.27-0.05-15.74-0.05 c4.07,0.97,7.87,1.61,11.48,2.79c8.74,2.85,15.2,9.15,21.83,15.11c7.42,6.67,14.56,13.66,22.09,20.2 c7.42,6.45,16.39,8.35,25.8,6.35c7.44-1.58,13.77,0.24,19.97,3.93c2.93,1.75,5.05,4,6.65,7.12 c7.95,15.46,17.49,29.91,28.76,43.16c6.33,7.44,13.05,14.53,19.62,21.81c-6.58-1.03-12.42-3.71-17.56-8.24 c-4.98-4.39-9.99-8.86-15.51-12.51c-7.8-5.17-16.48-8.89-26.04-8.31c-8.34,0.51-16.98,1.01-24.85,3.52 c-17.61,5.63-34.81,12.5-52.18,18.89c-0.34,0.12-0.6,0.45-0.9,0.68c0.96,0.17,1.75-0.03,2.52-0.28 c7.29-2.38,14.86-3.42,22.24-1.48c7.64,2.01,15.04,5.05,22.42,7.95c9.58,3.76,18.99,7.97,28.58,11.72 c11.64,4.56,22.72,2.29,32.64-4.49c7.02-4.8,14.2-6.93,22.47-5.49c5.07,0.88,10.34,1.55,14.38,5.07 c18.45,16.03,38.73,29.15,60.91,39.31c0.47-1.9,1.25-3.7,2.29-5.34c-18.57-8.47-35.81-19.13-51.74-31.98 c-0.98-0.79-2.18-1.79-2.47-2.91c-1.48-5.72-1.87-11.52-0.79-17.41c0.81-4.39,3.17-7.84,5.8-11.29 c6.88-9.02,10.37-19.08,7.66-30.44c-1.54-6.44-3.7-12.75-5.82-19.04c-3.37-10-7.06-19.89-10.4-29.9 c-3.22-9.65-2-19.16,1.59-28.48c0.25-0.65,0.43-1.32,0.65-1.98c-0.89,0.42-1.31,1.03-1.6,1.7 c-6.66,15.01-13.45,29.96-19.89,45.06c-3.98,9.32-5.47,19.37-6.63,29.32c-1.12,9.59,2,18.64,6.87,26.75 c3.95,6.57,8.96,12.5,13.48,18.73c3.07,4.22,4.63,8.99,5.3,14.3c-0.46-0.18-0.64-0.2-0.76-0.3 c-22.82-19.89-41.31-43.22-55.53-69.95c-0.36-0.68-0.78-1.48-0.75-2.2c0.38-10.98,2.71-20.79,13.24-27.1 c7.77-4.65,13.09-11.76,14.21-21.04c0.83-6.94,0.89-13.97,1.13-20.97c0.27-7.52,0.3-15.04,0.53-22.56 c0.28-9.05,3.94-16.73,9.75-23.51c0.35-0.4,0.64-0.86,0.95-1.29c-0.29-0.27-0.59-0.54-0.88-0.81 c-3.61,3.88-7.26,7.73-10.84,11.64c-10.98,11.99-22.7,23.29-30.57,37.9c-4.37,8.11-5.97,16.5-4.75,25.29 c0.94,6.78,3.04,13.44,4.97,20.05c1.7,5.84,1.14,11.47-0.41,17.51c-0.39-0.56-0.62-0.81-0.76-1.1 c-8.13-17.01-14.3-34.71-18.34-53.14c-3.36-15.34-5.25-30.87-5.53-46.59c-0.02-0.86-0.1-1.87,0.29-2.57 c3.76-6.84,8.57-12.42,17-13.26c11.07-1.11,19.59-5.88,24.27-16.47c2.75-6.23,5.62-12.41,8.6-18.53 c3.41-6.99,6.55-14.24,13.17-18.95c2.8-1.99,5.91-3.56,8.88-5.31c-3.52,0.84-7.02,1.83-10.4,3.12 c-13.85,5.28-28.07,9.6-40.51,18.2c-6.49,4.48-11,10.16-13.11,17.41c-1.76,6.07-2.31,12.51-3.22,18.81 c-0.58,4-2.33,7.33-5.09,10.31c0.36-9.31,0.9-18.55,1.86-27.75c2.03-19.49,6.81-38.35,13.71-56.66 c3.69-9.8,14.05-15.3,24.38-13.78c7.93,1.16,15.37-0.33,21.19-6.52c2.58-2.74,5.2-5.45,7.72-8.25 c4.81-5.32,9.5-10.74,14.34-16.03c3.42-3.74,7.86-5.74,12.72-6.88c1.64-0.39,3.3-0.7,4.95-1.04c-6.09-0.19-12.1,0.07-18.08,0.68 c-9.29,0.94-18.55,1.67-27.7,4.05c-12.85,3.35-21.07,11.07-25.44,23.35c-0.76,2.14-1.66,4.23-2.54,6.32 c-1.32,3.11-4.28,6.26-7.22,7.76c0-0.16-0.05-0.35,0.01-0.49c9.76-22.26,22.38-42.75,38.25-61.18c1.13-1.31,2.81-2.38,4.45-2.96 c6.12-2.17,12.2-2.22,18.43,0.18c8.07,3.11,16.22,3.17,24.16-0.76c5.48-2.71,10.95-5.45,16.45-8.1 c5.74-2.77,11.44-5.78,17.92-6.33c3.71-0.31,7.47-0.06,11.2-0.06c-0.01-0.11-0.01-0.23-0.02-0.34c-3.06-0.58-6.11-1.23-9.19-1.72 c-13.54-2.14-26.99-5.06-40.85-4.47c-5.33,0.23-10.33,1.34-15.19,3.52c-5.75,2.59-9.97,7.02-14.31,11.33 c-2.33,2.31-5.03,3.82-8.65,4.68c0.57-0.71,0.82-1.06,1.11-1.37c12.41-13.56,26.14-25.61,41.21-36.12 c3.14-2.19,6.3-4.7,9.85-5.85c7.69-2.51,15.23-1.88,22.4,2.57c7.42,4.61,15.52,6.12,24.13,3.62c6.03-1.75,12.07-3.52,18.14-5.11 c6.83-1.8,13.67-3.88,20.88-2.49c2.8,0.54,5.58,1.22,8.62,1.89c-0.34-0.32-0.45-0.5-0.6-0.55c-13.54-4.6-26.99-9.51-40.67-13.64 c-7.25-2.19-14.83-3.07-22.51-0.96c-6.24,1.71-11.4,5.22-16.59,8.77c-2.8,1.91-5.88,2.78-9.3,2.7c4.27-2.71,8.59-5.28,13.06-7.57 C227.22,389.6,236.87,385.02,248.59,386.53z"></path> </g> </g> <g> <g> <path class="st0" d="M981.05,436.82c11.33-3.28,21.25-7.53,29.76-12.75c8.5-5.21,14.09-14.09,16.78-26.62h19.24l81.89,268.03 c0.29,1.2,0.67,2.46,1.11,3.8c0.45,1.34,0.82,2.61,1.12,3.8c4.18,12.24,9.24,21.48,15.21,27.74 c5.97,6.26,15.96,10.59,29.98,12.97v12.08h-105.6v-12.08c11.93-0.29,19.91-2.08,23.94-5.37c4.02-3.28,5.89-7.45,5.59-12.53 c0-2.38-0.3-4.92-0.89-7.6c-0.6-2.68-1.34-5.52-2.23-8.5c0-0.29-0.08-0.74-0.23-1.34c-0.15-0.6-0.38-1.19-0.67-1.79l-13.42-47.43 H970.76l-16.11,47.43c-0.6,1.5-1.05,3.13-1.35,4.92c-0.3,1.79-0.6,3.58-0.89,5.37c0,2.09-0.07,4.18-0.22,6.26 c-0.16,2.09-0.23,3.88-0.23,5.37c0,4.78,2.39,8.21,7.16,10.29c4.77,2.09,10.14,3.73,16.11,4.92v12.08h-89.49v-12.08 c12.82-2.68,22.89-7.45,30.2-14.32c7.31-6.86,12.75-15.36,16.33-25.5l69.8-200.02c0.6-1.19,1.04-2.39,1.35-3.58 c0.29-1.19,0.59-2.39,0.89-3.58c0.29-1.19,0.52-2.39,0.67-3.58c0.15-1.19,0.23-2.39,0.23-3.58c0-3.58-1.05-6.64-3.13-9.17 c-2.09-2.53-5.81-3.8-11.18-3.8c-1.2,0-2.68,0.08-4.47,0.23c-1.79,0.15-3.58,0.52-5.37,1.12V436.82z M1028.48,460.08l-2.24-0.44 l-49.66,150.79h98.89L1028.48,460.08z"></path> <path class="st0" d="M1327.38,412.65c30.72,0,52.94,5.3,66.67,15.88c13.72,10.59,22.52,22.15,26.4,34.68 c1.19,3.88,2.01,7.68,2.46,11.41c0.44,3.73,0.67,7.24,0.67,10.51c0,19.99-6.49,36.1-19.46,48.33 c-12.98,12.24-27.97,19.99-44.97,23.27l-0.89,2.23c22.66,3.29,40.12,9.84,52.35,19.69c12.22,9.84,21.03,20.29,26.4,31.32 c2.68,5.97,4.55,11.79,5.59,17.45c1.04,5.67,1.56,10.9,1.56,15.66c0,2.98-0.15,5.97-0.44,8.95c-0.3,2.98-0.75,5.97-1.35,8.95 c-3.88,16.11-13.35,30.95-28.41,44.52c-15.07,13.58-38.41,20.36-70.03,20.36H1192.7v-12.08c12.82-0.59,21.32-4.25,25.5-10.96 c4.18-6.71,6.56-13.94,7.16-21.7c0.3-1.79,0.45-3.51,0.45-5.15c0-1.63,0-3.2,0-4.69V467.24c0-13.72-2.46-24.08-7.38-31.1 c-4.92-7.01-13.5-10.81-25.73-11.41v-12.08H1327.38z M1317.09,553.6c22.97,0,39.22-4.62,48.77-13.87 c9.55-9.24,15.66-19.54,18.35-30.88c0.89-3.58,1.49-7.08,1.79-10.51c0.29-3.43,0.44-6.78,0.44-10.07 c0-17.3-4.02-29.82-12.08-37.59c-8.05-7.76-17-12.98-26.85-15.66c-5.97-1.79-11.86-2.83-17.68-3.13 c-5.81-0.3-10.51-0.45-14.09-0.45h-29.98c-7.16,0-12.38,1.27-15.66,3.8c-3.29,2.54-5.53,5.3-6.71,8.28 c-0.89,1.5-1.42,2.98-1.56,4.47c-0.15,1.5-0.23,2.84-0.23,4.02V553.6H1317.09z M1261.6,691.87c0,4.77,1.79,8.21,5.37,10.29 c3.58,2.09,7.45,3.43,11.63,4.03c2.08,0.6,4.18,0.89,6.26,0.89c2.08,0,3.87,0,5.37,0h31.32c3.88,0,9.32-0.23,16.33-0.67 c7.01-0.45,14.39-1.86,22.15-4.25c10.74-3.28,20.58-9.39,29.53-18.34c8.95-8.95,13.42-22.67,13.42-41.17 c0-20.88-4.77-36.17-14.32-45.86c-9.55-9.69-19.99-16.33-31.32-19.91c-7.46-2.09-14.7-3.36-21.7-3.8 c-7.01-0.45-12.61-0.67-16.78-0.67h-57.27V691.87z"></path> <path class="st0" d="M1554.24,436.82c11.33-3.28,21.25-7.53,29.76-12.75c8.5-5.21,14.09-14.09,16.78-26.62h19.24l81.89,268.03 c0.29,1.2,0.67,2.46,1.11,3.8c0.45,1.34,0.82,2.61,1.12,3.8c4.18,12.24,9.24,21.48,15.21,27.74 c5.97,6.26,15.96,10.59,29.98,12.97v12.08h-105.6v-12.08c11.93-0.29,19.91-2.08,23.94-5.37c4.02-3.28,5.89-7.45,5.59-12.53 c0-2.38-0.3-4.92-0.89-7.6c-0.6-2.68-1.34-5.52-2.23-8.5c0-0.29-0.08-0.74-0.23-1.34c-0.15-0.6-0.38-1.19-0.67-1.79l-13.42-47.43 h-111.87l-16.11,47.43c-0.6,1.5-1.05,3.13-1.35,4.92c-0.3,1.79-0.6,3.58-0.89,5.37c0,2.09-0.07,4.18-0.22,6.26 c-0.16,2.09-0.23,3.88-0.23,5.37c0,4.78,2.39,8.21,7.16,10.29c4.77,2.09,10.14,3.73,16.11,4.92v12.08h-89.49v-12.08 c12.82-2.68,22.89-7.45,30.2-14.32c7.31-6.86,12.75-15.36,16.33-25.5l69.8-200.02c0.6-1.19,1.04-2.39,1.35-3.58 c0.29-1.19,0.59-2.39,0.89-3.58c0.29-1.19,0.52-2.39,0.67-3.58c0.15-1.19,0.23-2.39,0.23-3.58c0-3.58-1.05-6.64-3.13-9.17 c-2.09-2.53-5.81-3.8-11.18-3.8c-1.2,0-2.68,0.08-4.47,0.23c-1.79,0.15-3.58,0.52-5.37,1.12V436.82z M1601.67,460.08l-2.24-0.44 l-49.66,150.79h98.89L1601.67,460.08z"></path> <path class="st0" d="M1867.9,424.74c-12.24,0.3-20.81,3.96-25.73,10.96c-4.92,7.01-7.38,17.53-7.38,31.55v80.1h163.33v-80.1 c0-14.01-2.47-24.53-7.38-31.55c-4.92-7-13.5-10.66-25.73-10.96v-12.08h101.58v12.08c-14.92,0.89-24.09,5.59-27.52,14.09 c-3.43,8.5-5.14,17.98-5.14,28.41v204.05c0,10.14,1.71,19.54,5.14,28.19c3.43,8.66,12.6,13.42,27.52,14.32v12.08H1965v-12.08 c12.23-0.59,20.81-4.32,25.73-11.18c4.92-6.86,7.38-17.3,7.38-31.32V566.13h-163.33v105.16c0,14.03,2.46,24.46,7.38,31.32 c4.92,6.87,13.49,10.59,25.73,11.18v12.08h-102.02v-12.08c14.91-0.59,24.16-4.99,27.74-13.2c3.58-8.2,5.37-17.07,5.37-26.62 c0-0.6,0-1.12,0-1.57c0-0.44,0-0.82,0-1.11V467.24c0-0.29,0-0.67,0-1.11c0-0.45,0-0.97,0-1.57c0-9.54-1.79-18.42-5.37-26.62 c-3.58-8.2-12.83-12.6-27.74-13.2v-12.08h102.02V424.74z"></path> <path class="st0" d="M2153.83,713.79c12.23-0.59,20.81-4.32,25.73-11.18c4.92-6.86,7.38-17,7.38-30.43V461.87 c0-14.01-2.39-22.6-7.16-25.73c-4.77-3.13-11.34-4.7-19.69-4.7c-5.37,0-11.79,0.83-19.24,2.46c-7.46,1.64-15.21,5.15-23.27,10.52 c-4.77,2.98-9.39,6.79-13.87,11.41c-4.47,4.63-8.8,10.07-12.98,16.33h-11.18l13.42-59.51h223.28l13.42,59.51h-11.19 c-5.97-9.55-12.53-17.15-19.69-22.82c-7.16-5.66-14.47-9.99-21.93-12.97c-4.77-1.79-9.47-3.06-14.09-3.8 c-4.63-0.74-9.03-1.12-13.2-1.12c-8.36,0-14.99,1.56-19.91,4.7c-4.92,3.13-7.38,11.71-7.38,25.73v210.31 c0,13.72,2.39,23.94,7.16,30.65c4.77,6.71,13.57,10.37,26.4,10.96v12.08h-102.02V713.79z"></path> </g> </g> <g> <path class="st1" d="M1761.11,783.93c0-1.98-0.42-3.46-1.27-4.45c-0.85-0.99-1.77-1.68-2.77-2.08c-0.7-0.2-1.34-0.35-1.94-0.45 c-0.6-0.1-1.1-0.15-1.5-0.15h-1.64v-3.11h27.08v3.11h-1.5c-0.4,0-0.9,0.05-1.5,0.15c-0.6,0.1-1.25,0.25-1.94,0.45 c-1,0.39-1.92,1.09-2.77,2.08c-0.85,0.99-1.27,2.48-1.27,4.45v28.35l26.63-27.6c0.3-0.3,0.5-0.49,0.6-0.59 c0.09-0.1,0.14-0.2,0.14-0.3h0.15c0-0.1,0.05-0.23,0.15-0.37c0.1-0.15,0.3-0.42,0.6-0.82c0.4-0.39,0.75-0.82,1.05-1.26 s0.45-0.91,0.45-1.41c0-0.79-0.4-1.48-1.19-2.08c-0.8-0.6-2.24-0.94-4.34-1.04v-3.11h21.85v3.11c-0.3,0.1-0.57,0.17-0.82,0.23 s-0.52,0.12-0.82,0.22c-0.8,0.3-1.57,0.67-2.32,1.11c-0.75,0.45-1.47,0.92-2.17,1.41c-0.7,0.5-1.35,0.99-1.95,1.48 c-0.6,0.5-1.05,0.89-1.34,1.19l-17.96,16.47l21.4,33.09c0.2,0.3,0.4,0.59,0.6,0.89c0.2,0.3,0.39,0.6,0.6,0.89 c0.9,1.39,1.94,2.52,3.14,3.41c1.19,0.89,2.89,1.53,5.08,1.92v3.12h-25.29v-3.12c1.59-0.2,2.89-0.52,3.89-0.96s1.5-1.41,1.5-2.89 c0-0.2-0.03-0.47-0.08-0.82c-0.05-0.35-0.13-0.72-0.23-1.11c-0.2-0.3-0.35-0.61-0.45-0.96c-0.1-0.35-0.25-0.62-0.45-0.82 l-16.31-26.12l-12.12,12.61v13.95c0,1.98,0.42,3.46,1.27,4.45c0.85,0.99,1.77,1.68,2.77,2.08c0.7,0.2,1.34,0.35,1.94,0.45 c0.6,0.1,1.1,0.14,1.5,0.14h1.5v3.12h-27.08v-3.12h1.64c0.4,0,0.9-0.05,1.5-0.14c0.6-0.1,1.25-0.25,1.94-0.45 c1-0.39,1.92-1.09,2.77-2.08c0.85-0.99,1.27-2.48,1.27-4.45V783.93z"></path> <path class="st1" d="M1871.53,779.63c4.59,5.04,7.73,10.64,9.43,16.77c0.6,1.98,1.02,3.95,1.27,5.94 c0.25,1.98,0.38,3.85,0.38,5.63c0,1.79-0.13,3.64-0.38,5.56c-0.25,1.93-0.62,3.88-1.12,5.87c-1.6,6.13-4.67,11.72-9.21,16.76 c-4.54,5.05-11,7.57-19.37,7.57c-8.38,0-14.84-2.47-19.38-7.42c-4.54-4.94-7.66-10.43-9.35-16.47c-0.6-2.08-1.03-4.13-1.28-6.16 c-0.25-2.03-0.37-3.93-0.37-5.72c0-1.78,0.12-3.66,0.37-5.63c0.25-1.98,0.67-3.96,1.28-5.94c1.69-6.13,4.86-11.73,9.5-16.77 c4.64-5.05,11-7.57,19.08-7.57C1860.56,772.05,1866.94,774.58,1871.53,779.63z M1850.59,777.47c-0.6,0.05-1.19,0.17-1.8,0.37 c-3.99,0.89-7.61,3.61-10.85,8.16c-3.24,4.55-4.86,11.87-4.86,21.96c0,8.71,1.17,15.21,3.52,19.52c2.34,4.3,4.91,7.25,7.7,8.83 c1.5,0.89,2.94,1.48,4.34,1.78c1.4,0.3,2.64,0.45,3.74,0.45c1,0,2.29-0.17,3.89-0.52c1.59-0.34,3.24-1.11,4.94-2.3 c2.69-1.68,5.11-4.65,7.26-8.9c2.14-4.25,3.21-10.54,3.21-18.85c0-9.89-1.57-17.11-4.71-21.66c-3.14-4.55-6.61-7.32-10.39-8.31 c-0.7-0.2-1.4-0.34-2.1-0.45c-0.7-0.09-1.4-0.14-2.09-0.14C1851.79,777.4,1851.18,777.42,1850.59,777.47z"></path> <path class="st1" d="M1951.58,778.73l-22,63.52h-2.54l-22.9-62.77h-0.6v51.79c0,0.39,0.05,0.84,0.15,1.33 c0.1,0.5,0.25,0.99,0.45,1.48c0.5,1.29,1.35,2.45,2.54,3.49c1.2,1.04,2.89,1.55,5.09,1.55c0.1,0,0.17,0,0.23,0 c0.05,0,0.12,0,0.22,0v3.12h-22.44v-3.12c0.39,0,0.87-0.05,1.42-0.14c0.54-0.1,1.07-0.25,1.57-0.45c1.29-0.49,2.44-1.43,3.44-2.82 c1-1.39,1.5-3.61,1.5-6.68V786.3c0-3.17-0.58-5.54-1.72-7.12c-1.15-1.58-3.02-2.38-5.61-2.38c-0.1,0-0.2,0-0.3,0 c-0.1,0-0.2,0-0.3,0v-3.11h22.14l18.4,50.6h0.89l17.66-50.6h21.55v3.11h-2.09c-0.3,0-0.75,0.05-1.35,0.15 c-0.6,0.1-1.25,0.3-1.94,0.59c-1,0.4-1.87,1.09-2.62,2.08s-1.12,2.42-1.12,4.3v48.08c0,1.98,0.42,3.46,1.27,4.45 c0.85,0.99,1.77,1.68,2.77,2.08c0.7,0.2,1.34,0.35,1.94,0.45c0.6,0.1,1.1,0.14,1.5,0.14h1.65v3.12h-27.08v-3.12h1.5 c0.4,0,0.9-0.05,1.5-0.14c0.6-0.1,1.25-0.25,1.95-0.45c1-0.39,1.92-1.09,2.77-2.08c0.85-0.99,1.28-2.48,1.28-4.45v-53.28H1951.58z "></path> <path class="st1" d="M2026.1,786.6c0-3.07-0.5-5.07-1.5-6.01c-1-0.94-2.79-1.41-5.39-1.41h-17.8c-0.4,0-0.82,0-1.28,0 c-0.45,0-0.92,0.05-1.42,0.15c-1.1,0.2-2.07,0.69-2.92,1.48c-0.85,0.79-1.27,2.17-1.27,4.15v47.05c0,1.78,0.37,3.17,1.12,4.15 c0.75,0.99,1.57,1.69,2.47,2.08c0.8,0.39,1.55,0.64,2.24,0.74c0.7,0.1,1.15,0.14,1.34,0.14h1.2v3.12h-25.88v-3.12h1.5 c0.39,0,0.87-0.05,1.42-0.14c0.54-0.1,1.12-0.3,1.72-0.6c1-0.39,1.89-1.08,2.69-2.08c0.8-0.99,1.2-2.42,1.2-4.3v-48.08 c0-1.88-0.4-3.31-1.2-4.3c-0.8-0.99-1.69-1.68-2.69-2.08c-0.6-0.3-1.18-0.49-1.72-0.59c-0.55-0.1-1.03-0.15-1.42-0.15h-1.5v-3.11 h66.58v3.11h-1.35c-0.2,0-0.65,0.05-1.34,0.15c-0.7,0.1-1.44,0.35-2.24,0.74c-0.9,0.39-1.72,1.09-2.47,2.08 c-0.75,0.99-1.12,2.38-1.12,4.16v46.15c0,2.77,0.52,4.97,1.57,6.6c1.04,1.63,3.01,2.45,5.91,2.45h1.5v3.12h-26.93v-3.12h1.34 c2.79,0,4.77-0.74,5.91-2.23c1.15-1.48,1.72-3.76,1.72-6.82V786.6z"></path> <path class="st1" d="M2101.51,830.08c0,2.77,0.52,4.97,1.57,6.6c1.04,1.63,2.92,2.45,5.61,2.45h1.19v3.12h-17.36v-6.97h-0.6 c-6.09,3.46-10.68,5.69-13.77,6.68c-3.1,0.99-5.89,1.58-8.38,1.78c-0.3,0-0.62,0-0.97,0c-0.35,0-0.72,0-1.12,0 c-4.69,0-8.21-1.01-10.55-3.04c-2.34-2.02-3.97-4.28-4.86-6.75c-0.4-1.08-0.67-2.15-0.82-3.19c-0.14-1.04-0.22-2.01-0.22-2.89 c0-5.74,2.57-10.41,7.7-14.02c5.14-3.61,10.75-6.65,16.83-9.13c1.29-0.49,2.59-0.99,3.89-1.48c1.29-0.49,2.54-0.99,3.74-1.48 c1.5-0.59,2.7-1.06,3.59-1.41c0.9-0.35,1.69-0.72,2.39-1.11c0.5-0.1,1-0.24,1.5-0.45c0.5-0.2,1.05-0.45,1.65-0.74v-1.93 c0-4.85-0.55-9.17-1.65-12.98c-1.1-3.8-4.44-5.71-10.02-5.71c-3.4,0-5.99,0.59-7.79,1.78c-1.79,1.19-3.09,2.48-3.89,3.86 c-0.7,0.99-1.15,1.95-1.34,2.89c-0.2,0.94-0.35,1.66-0.45,2.15c-0.4,2.08-1.04,3.71-1.94,4.9s-2.39,1.78-4.49,1.78 c-0.3,0-0.58-0.02-0.82-0.08c-0.26-0.05-0.53-0.12-0.82-0.22c-0.9-0.3-1.72-0.89-2.47-1.78c-0.75-0.89-1.12-2.18-1.12-3.86 c0-4.35,2.57-8.24,7.7-11.65c5.14-3.41,11.25-5.12,18.33-5.12c1.1,0,2.35,0.08,3.74,0.23c1.39,0.14,2.84,0.42,4.34,0.81 c2.89,0.79,5.56,2.4,8.01,4.82c2.45,2.43,3.67,6.31,3.67,11.65V830.08z M2092.53,804.26c-0.3,0.1-0.63,0.23-0.97,0.37 c-0.35,0.15-0.72,0.32-1.12,0.52c-7.08,2.97-13.56,6.26-19.45,9.87c-5.89,3.62-8.83,7.94-8.83,12.98c0,0.2,0,0.4,0,0.6 s0.05,0.35,0.15,0.45c0.2,1.98,1.14,3.76,2.84,5.34s4.14,2.38,7.33,2.38c1.2,0,2.47-0.15,3.81-0.45c1.35-0.3,2.67-0.74,3.96-1.33 c1.3-0.5,2.6-1.04,3.89-1.63c1.3-0.59,2.54-1.23,3.74-1.93c0.9-0.49,1.74-0.99,2.54-1.48c0.8-0.49,1.5-0.94,2.1-1.33V804.26z"></path> <path class="st1" d="M2142.51,773.69v3.11h-1.5c-0.1,0-0.53,0.05-1.28,0.15c-0.75,0.1-1.57,0.35-2.47,0.74 c-0.9,0.39-1.74,1.09-2.54,2.08c-0.79,0.99-1.19,2.38-1.19,4.16v20.33h32.77v-18.4c0-2.87-0.53-5.1-1.57-6.68 c-1.05-1.58-3.07-2.38-6.06-2.38h-1.34v-3.11h26.93v3.11h-1.5c-0.1,0-0.52,0.05-1.27,0.15c-0.75,0.1-1.57,0.35-2.47,0.74 c-0.9,0.39-1.75,1.09-2.54,2.08c-0.8,0.99-1.2,2.38-1.2,4.16v48.08c0,1.78,0.4,3.17,1.2,4.15c0.79,0.99,1.65,1.69,2.54,2.08 c0.9,0.39,1.72,0.64,2.47,0.74c0.75,0.1,1.17,0.14,1.27,0.14h1.5v3.12h-26.93v-3.12h1.34c3,0,5.01-0.81,6.06-2.45 c1.04-1.63,1.57-3.83,1.57-6.6v-20.33h-32.77v22.26c0,1.78,0.4,3.17,1.19,4.15c0.8,0.99,1.65,1.69,2.54,2.08 c0.9,0.39,1.72,0.64,2.47,0.74c0.75,0.1,1.17,0.14,1.28,0.14h1.5v3.12h-26.93v-3.12h1.34c2.99,0,5.01-0.81,6.06-2.45 c1.05-1.63,1.57-3.83,1.57-6.6v-44.22c0-2.87-0.52-5.1-1.57-6.68c-1.04-1.58-3.07-2.38-6.06-2.38h-1.34v-3.11H2142.51z"></path> <path class="st1" d="M2250.53,830.08c0,2.77,0.53,4.97,1.57,6.6c1.05,1.63,3.07,2.45,6.06,2.45h1.5v3.12h-27.08v-3.12h1.5 c0.4,0,0.9-0.05,1.5-0.14c0.6-0.1,1.25-0.25,1.95-0.45c1-0.39,1.92-1.09,2.77-2.08c0.85-0.99,1.28-2.48,1.28-4.45v-35.47 l-32.77,30.87v2.67c0,2.77,0.52,4.97,1.57,6.6c1.05,1.63,3.01,2.45,5.91,2.45h1.5v3.12h-26.93v-3.12h1.34 c0.1,0,0.54-0.05,1.34-0.14c0.8-0.1,1.59-0.35,2.39-0.74c1-0.39,1.9-1.09,2.7-2.08c0.79-0.99,1.19-2.37,1.19-4.15v-48.08 c0-1.78-0.4-3.17-1.19-4.16c-0.8-0.99-1.7-1.68-2.7-2.08c-0.8-0.39-1.59-0.64-2.39-0.74c-0.8-0.1-1.25-0.15-1.34-0.15h-1.34v-3.11 h26.93v3.11h-1.5c-2.9,0-4.86,0.79-5.91,2.38c-1.05,1.58-1.57,3.81-1.57,6.68v33.98l32.77-31.01v-4.9c0-1.98-0.43-3.46-1.28-4.45 c-0.85-0.99-1.77-1.68-2.77-2.08c-0.7-0.2-1.34-0.35-1.95-0.45c-0.6-0.1-1.1-0.15-1.5-0.15h-1.5v-3.11h27.08v3.11h-1.5 c-2.99,0-5.01,0.79-6.06,2.38c-1.04,1.58-1.57,3.81-1.57,6.68V830.08z"></path> <path class="st1" d="M2266.84,839.13c2.59-0.39,4.64-1.23,6.13-2.52c1.5-1.28,2.7-2.67,3.59-4.16c0.2-0.3,0.37-0.59,0.52-0.89 c0.15-0.3,0.27-0.6,0.37-0.89l9.43-19.44v-0.74c-0.9-0.2-1.95-0.5-3.14-0.89c-1.2-0.39-2.45-0.94-3.74-1.63 c-2.3-1.28-4.39-3.17-6.28-5.63c-1.9-2.48-2.84-5.79-2.84-9.95c0-4.65,1.65-8.93,4.93-12.83c3.29-3.91,9.53-5.86,18.71-5.86h35.16 v3.11h-1.5c-0.4,0-0.88,0.05-1.43,0.15c-0.54,0.1-1.07,0.25-1.57,0.45c-1,0.39-1.92,1.09-2.76,2.08 c-0.85,0.99-1.28,2.48-1.28,4.45v48.08c0,1.98,0.42,3.46,1.28,4.45c0.85,0.99,1.77,1.68,2.76,2.08c0.5,0.2,1.03,0.35,1.57,0.45 c0.55,0.1,1.03,0.14,1.43,0.14h1.5v3.12h-25.89v-3.12h1.35c0.39,0,0.87-0.05,1.42-0.14c0.54-0.1,1.07-0.25,1.57-0.45 c1-0.39,1.92-1.09,2.77-2.08c0.85-0.99,1.28-2.48,1.28-4.45v-20.78h-15.26l-14.67,31.01h-15.41V839.13z M2312.18,786.45 c0-0.09,0-0.22,0-0.37c0-0.14,0-0.27,0-0.37c-0.1-1.68-0.7-3.21-1.8-4.6c-1.1-1.39-3.74-2.08-7.93-2.08c-0.1,0-0.23,0-0.38,0 c-0.14,0-0.32,0-0.52,0c-0.1,0-0.25,0-0.45,0c-0.2,0-0.35,0-0.45,0c-0.2,0-0.37,0-0.52,0s-0.32,0-0.52,0 c-0.8,0-1.68,0.03-2.62,0.08c-0.95,0.05-1.87,0.13-2.77,0.23c-3.09,0.3-5.94,1.29-8.53,2.97c-2.6,1.68-3.89,4.89-3.89,9.65 c0,4.75,1.52,8.23,4.56,10.46c3.04,2.23,6.91,3.34,11.6,3.34h14.21V786.45z"></path> </g> <g> <path class="st1" d="M887.09,840.61c2.99,0,5.01-0.81,6.06-2.45c1.05-1.63,1.57-3.83,1.57-6.6v-44.22c0-2.87-0.52-5.1-1.57-6.68 c-1.04-1.58-3.07-2.38-6.06-2.38h-1.34v-3.11h26.93v3.11h-1.5c-0.1,0-0.53,0.05-1.28,0.15c-0.75,0.1-1.57,0.35-2.47,0.74 s-1.74,1.09-2.54,2.08c-0.79,0.99-1.19,2.38-1.19,4.16v20.33h15.26c0.2-1.68,0.5-3.48,0.9-5.41c0.39-1.93,0.99-3.88,1.79-5.86 c1.9-5.25,4.99-10.04,9.28-14.39c4.28-4.35,10.27-6.53,17.95-6.53c8.28,0,14.71,2.52,19.3,7.57c4.59,5.04,7.68,10.64,9.27,16.77 c0.6,1.98,1.02,3.95,1.28,5.94c0.24,1.98,0.37,3.85,0.37,5.63c0,1.79-0.13,3.64-0.37,5.56c-0.26,1.93-0.63,3.88-1.12,5.87 c-1.59,6.13-4.67,11.72-9.2,16.76c-4.54,5.05-11,7.57-19.38,7.57c-8.48,0-15.07-2.6-19.75-7.79c-4.69-5.19-7.78-10.91-9.28-17.14 c-0.4-1.58-0.7-3.11-0.89-4.6c-0.2-1.48-0.3-2.97-0.3-4.45H903.7v22.26c0,1.78,0.4,3.17,1.19,4.15c0.8,0.99,1.65,1.69,2.54,2.08 s1.72,0.64,2.47,0.74s1.17,0.14,1.28,0.14h1.5v3.12h-26.93v-3.12H887.09z M947.46,778.96c-0.45,0.05-0.92,0.12-1.42,0.22 c-4.09,0.7-7.83,3.29-11.22,7.79c-3.39,4.5-5.09,12-5.09,22.48c0,8.61,1.1,15.04,3.29,19.29c2.19,4.25,4.64,7.18,7.33,8.76 c1.59,1.09,3.17,1.78,4.71,2.08c1.55,0.3,2.82,0.45,3.81,0.45c1.1,0,2.27-0.1,3.52-0.3c1.25-0.2,2.47-0.6,3.66-1.19 c3.09-1.48,5.88-4.35,8.38-8.61c2.49-4.25,3.74-11.08,3.74-20.48c0-10.09-1.9-17.7-5.69-22.85c-3.79-5.14-8.33-7.72-13.62-7.72 C948.38,778.88,947.91,778.91,947.46,778.96z"></path> <path class="st1" d="M1003.8,772.05v10.24h0.75c1.59-2.08,3.31-3.73,5.16-4.97c1.84-1.23,3.66-2.15,5.46-2.75 c1.3-0.39,2.54-0.67,3.74-0.81c1.19-0.15,2.39-0.23,3.59-0.23c7.48,0,13.87,2.94,19.15,8.83c5.29,5.89,7.93,13.88,7.93,23.97 c0,0.49,0,0.96,0,1.41s-0.05,0.92-0.15,1.41c-0.5,9-3.24,17.27-8.23,24.78c-4.99,7.52-11.77,11.28-20.35,11.28 c-0.8,0-1.62-0.05-2.47-0.15c-0.85-0.1-1.72-0.24-2.62-0.44c-1.99-0.4-3.97-1.11-5.91-2.16c-1.95-1.04-3.72-2.54-5.31-4.52h-0.75 v29.23c0,1.68,0.37,3.01,1.12,4.01c0.75,0.99,1.57,1.68,2.47,2.08c0.8,0.39,1.55,0.64,2.24,0.74c0.7,0.1,1.15,0.15,1.34,0.15h2.39 v3.26h-27.08v-3.26h1.34c2.79-0.1,4.68-0.99,5.69-2.67c0.99-1.68,1.5-3.9,1.5-6.67v-73.64c0-2.37-0.45-4.1-1.34-5.19 c-0.9-1.08-1.9-1.77-3-2.08c-0.3-0.09-0.62-0.17-0.97-0.22c-0.35-0.05-0.67-0.08-0.97-0.08h-1.5v-3.11 c2.79-0.89,5.21-1.95,7.25-3.19c2.05-1.23,3.87-2.99,5.47-5.27H1003.8z M1003.8,826.37c0,2.97,1.29,5.71,3.89,8.24 c2.59,2.52,5.48,4.18,8.68,4.97c0.6,0.1,1.17,0.2,1.72,0.3c0.54,0.1,1.12,0.15,1.72,0.15c1,0,2.2-0.17,3.59-0.52 c1.4-0.34,2.84-0.91,4.34-1.7c2.7-1.68,5.19-4.55,7.48-8.61c2.3-4.05,3.44-10.04,3.44-17.95c0-8.41-1.6-15.91-4.79-22.49 c-3.19-6.58-8.03-9.87-14.52-9.87c-0.4,0-0.85,0.02-1.34,0.08c-0.5,0.05-0.95,0.12-1.35,0.22c-3.19,0.59-6.13,2.13-8.83,4.6 c-2.69,2.47-4.03,5.44-4.03,8.9V826.37z"></path> <path class="st1" d="M1116.46,831.56c0,2.77,0.53,4.97,1.57,6.6c1.05,1.63,3.07,2.45,6.06,2.45h1.5v3.12h-27.08v-3.12h1.5 c0.4,0,0.9-0.05,1.5-0.14c0.6-0.1,1.25-0.25,1.95-0.45c1-0.39,1.92-1.09,2.77-2.08c0.85-0.99,1.28-2.48,1.28-4.45v-35.47 l-32.77,30.87v2.67c0,2.77,0.52,4.97,1.57,6.6s3.01,2.45,5.91,2.45h1.5v3.12h-26.93v-3.12h1.34c0.1,0,0.54-0.05,1.34-0.14 c0.8-0.1,1.59-0.35,2.39-0.74c1-0.39,1.9-1.09,2.7-2.08c0.79-0.99,1.19-2.37,1.19-4.15v-48.08c0-1.78-0.4-3.17-1.19-4.16 c-0.8-0.99-1.7-1.68-2.7-2.08c-0.8-0.39-1.59-0.64-2.39-0.74c-0.8-0.1-1.25-0.15-1.34-0.15h-1.34v-3.11h26.93v3.11h-1.5 c-2.9,0-4.86,0.79-5.91,2.38c-1.05,1.58-1.57,3.81-1.57,6.68v33.98l32.77-31.01v-4.9c0-1.98-0.43-3.46-1.28-4.45 c-0.85-0.99-1.77-1.68-2.77-2.08c-0.7-0.2-1.34-0.35-1.95-0.45c-0.6-0.1-1.1-0.15-1.5-0.15h-1.5v-3.11h27.08v3.11h-1.5 c-2.99,0-5.01,0.79-6.06,2.38c-1.04,1.58-1.57,3.81-1.57,6.68V831.56z"></path> <path class="st1" d="M1198.16,860.95h-3.14c-1.3-5.25-3.9-9.43-7.79-12.54c-3.89-3.11-8.68-4.67-14.36-4.67h-21.99 c-1.1,0-2.24,0.02-3.44,0.08c-1.19,0.05-2.39,0.22-3.59,0.52c-3.29,0.7-6.39,2.25-9.27,4.68c-2.9,2.42-4.89,6.35-5.99,11.8 l-3.14,0.15l2.99-19.59c0.1,0,0.2,0,0.3,0c0.1,0,0.2,0,0.3,0c0.2,0,0.35,0,0.45,0c2.79,0,4.89-0.61,6.28-1.85 c1.4-1.23,2.64-3.23,3.74-6.01c0.1-0.3,0.23-0.6,0.38-0.89c0.15-0.3,0.27-0.64,0.37-1.04c0.9-2.57,1.8-5.49,2.7-8.76 c0.9-3.26,1.69-6.63,2.39-10.09c0.8-3.86,1.47-7.59,2.02-11.21c0.55-3.61,0.88-6.7,0.97-9.27c0-0.79,0-1.56,0-2.3s0-1.46,0-2.15 c0-0.49-0.05-1.09-0.15-1.78c-0.1-0.7-0.2-1.39-0.3-2.08c-0.4-1.28-1.15-2.52-2.24-3.71c-1.1-1.19-2.85-1.83-5.24-1.93v-3.11 h50.43v3.11h-1.5c-0.3,0-0.75,0.05-1.35,0.15c-0.6,0.1-1.25,0.3-1.94,0.59c-1,0.4-1.87,1.09-2.62,2.08 c-0.75,0.99-1.12,2.42-1.12,4.3v47.19c0,0.5,0.03,1.07,0.08,1.7c0.05,0.65,0.17,1.26,0.38,1.85c0.5,1.39,1.44,2.63,2.84,3.71 c1.4,1.09,3.69,1.63,6.89,1.63c0.2,0,0.37,0,0.52,0c0.15,0,0.32-0.05,0.52-0.15c0.1,0,0.25,0,0.45,0c0.2,0,0.35,0,0.45,0 L1198.16,860.95z M1173.32,788.82c0-4.16-0.75-6.58-2.24-7.27c-1.5-0.7-3.14-1.04-4.94-1.04h-4.04h-0.15 c-2.7,0-4.56,0.48-5.61,1.41s-1.87,4.28-2.47,10.02c-0.3,3.26-0.77,6.95-1.42,11.05c-0.65,4.1-1.42,8.34-2.32,12.69 c-0.9,4.06-1.87,8.06-2.92,12.02c-1.05,3.96-2.23,7.52-3.52,10.68h21.7c3.19,0,5.31-0.64,6.36-1.92c1.04-1.29,1.57-3.36,1.57-6.24 V788.82z"></path> <path class="st1" d="M1257.7,831.56c0,2.77,0.53,4.97,1.57,6.6c1.05,1.63,3.07,2.45,6.06,2.45h1.5v3.12h-27.08v-3.12h1.5 c0.4,0,0.9-0.05,1.5-0.14c0.6-0.1,1.25-0.25,1.95-0.45c1-0.39,1.92-1.09,2.77-2.08c0.85-0.99,1.28-2.48,1.28-4.45v-35.47 l-32.77,30.87v2.67c0,2.77,0.52,4.97,1.57,6.6c1.05,1.63,3.01,2.45,5.91,2.45h1.5v3.12h-26.93v-3.12h1.34 c0.1,0,0.54-0.05,1.34-0.14c0.8-0.1,1.59-0.35,2.39-0.74c1-0.39,1.9-1.09,2.7-2.08c0.79-0.99,1.19-2.37,1.19-4.15v-48.08 c0-1.78-0.4-3.17-1.19-4.16c-0.8-0.99-1.7-1.68-2.7-2.08c-0.8-0.39-1.59-0.64-2.39-0.74c-0.8-0.1-1.25-0.15-1.34-0.15h-1.34v-3.11 h26.93v3.11h-1.5c-2.9,0-4.86,0.79-5.91,2.38c-1.05,1.58-1.57,3.81-1.57,6.68v33.98l32.77-31.01v-4.9c0-1.98-0.43-3.46-1.28-4.45 c-0.85-0.99-1.77-1.68-2.77-2.08c-0.7-0.2-1.34-0.35-1.95-0.45c-0.6-0.1-1.1-0.15-1.5-0.15h-1.5v-3.11h27.08v3.11h-1.5 c-2.99,0-5.01,0.79-6.06,2.38c-1.04,1.58-1.57,3.81-1.57,6.68V831.56z"></path> <path class="st1" d="M1336.26,775.17v3.11h-1.5c-2.79,0-4.71,0.79-5.76,2.38c-1.05,1.58-1.57,3.81-1.57,6.68v44.22 c0,2.77,0.52,4.97,1.57,6.6c1.04,1.63,2.96,2.45,5.76,2.45h1.5v3.12h-27.69v-3.12h2.39c3.19,0,5.24-0.81,6.14-2.45 c0.89-1.63,1.34-3.83,1.34-6.6v-16.62c-5.09,1.18-9.7,1.9-13.84,2.15c-4.14,0.25-7.85,0.37-11.15,0.37c-0.5,0-1.02,0-1.57,0 c-0.54,0-1.07,0-1.57,0c-2.99-0.2-5.71-0.99-8.15-2.38c-2.45-1.39-3.67-4.5-3.67-9.35v-20.33c0-1.98-0.4-3.46-1.19-4.45 c-0.8-0.99-1.7-1.68-2.7-2.08c-0.7-0.2-1.34-0.35-1.95-0.45c-0.6-0.1-1.1-0.15-1.5-0.15h-1.34v-3.11h26.49v3.11h-1.35 c-0.4,0-0.89,0.05-1.5,0.15c-0.6,0.1-1.25,0.25-1.94,0.45c-1,0.39-1.9,1.09-2.7,2.08c-0.8,0.99-1.19,2.48-1.19,4.45v18.85 c0,2.88,0.72,4.9,2.17,6.09c1.44,1.19,4.46,1.78,9.05,1.78c0.2,0,0.42,0,0.67,0c0.24,0,0.52,0,0.82,0c2.59,0,5.29-0.17,8.08-0.52 c2.79-0.35,6.13-1.01,10.02-2.01v-22.26c0-2.87-0.45-5.1-1.34-6.68c-0.9-1.58-2.94-2.38-6.14-2.38h-1.34v-3.11H1336.26z"></path> <path class="st1" d="M1400,832.31c-5.29,5.14-10.03,8.59-14.21,10.31c-4.19,1.73-8.19,2.6-11.97,2.6c-9.08,0-16.41-3.63-22-10.91 c-5.59-7.27-8.38-15.55-8.38-24.86c0-10.98,2.86-19.71,8.6-26.19c5.73-6.48,12.39-9.72,19.98-9.72c7.98,0,14.36,3.44,19.15,10.31 c4.79,6.88,7.28,14.87,7.48,23.97h-44.44c0,1.48,0.08,3.02,0.23,4.6c0.15,1.59,0.37,3.22,0.67,4.9c1.1,5.15,3.37,9.9,6.81,14.25 c3.44,4.35,8.55,6.53,15.33,6.53c4.29,0,8.06-0.86,11.3-2.6c3.24-1.73,6.31-3.83,9.2-6.31L1400,832.31z M1387.88,802.48 c-0.4-7.52-2.2-13.33-5.39-17.44c-3.19-4.1-7.08-6.16-11.67-6.16c-0.1,0-0.17,0-0.22,0c-0.05,0-0.13,0-0.23,0 c-3.79,0.1-7.33,1.91-10.63,5.41c-3.29,3.51-5.14,9.57-5.54,18.18H1387.88z"></path> <path class="st1" d="M1464.19,832.9c-3.69,3.57-7.61,6.51-11.74,8.83c-4.14,2.32-8.61,3.49-13.4,3.49 c-8.97,0-16.43-3.58-22.36-10.76c-5.94-7.17-8.9-15.26-8.9-24.27c0-0.09,0-0.17,0-0.22c0-0.05,0-0.12,0-0.22 c0.1-9,2.97-17.29,8.6-24.86c5.63-7.57,13.04-11.36,22.22-11.36c0.1,0,0.23,0,0.38,0c0.14,0,0.32,0,0.52,0 c5.18,0.2,9.97,1.93,14.36,5.19c4.39,3.26,6.59,7.12,6.59,11.58c0,1.98-0.4,3.47-1.2,4.45c-0.8,0.99-1.65,1.63-2.54,1.93 c-0.4,0.1-0.75,0.17-1.04,0.22c-0.3,0.05-0.6,0.08-0.9,0.08c-2.3,0-3.89-0.69-4.79-2.08c-0.9-1.39-1.5-2.87-1.8-4.45 c0-0.5-0.05-0.94-0.15-1.34c-0.1-0.39-0.15-0.79-0.15-1.19c-0.1-0.49-0.2-1.06-0.3-1.7c-0.1-0.64-0.25-1.31-0.45-2.01 c-0.6-1.38-1.62-2.62-3.07-3.71c-1.44-1.08-3.72-1.63-6.81-1.63c-5.89,0-10.15,2.1-12.79,6.31c-2.64,4.2-4.36,8.78-5.16,13.73 c-0.2,1.48-0.35,2.94-0.45,4.38c-0.1,1.44-0.15,2.85-0.15,4.23c0,8.41,2.49,15.63,7.48,21.66c4.99,6.03,10.92,9.05,17.8,9.05 c3.19,0,6.26-0.79,9.21-2.38c2.94-1.58,5.51-3.61,7.7-6.08L1464.19,832.9z"></path> <path class="st1" d="M1479.45,785.41c0-1.98-0.42-3.46-1.27-4.45c-0.85-0.99-1.77-1.68-2.77-2.08c-0.7-0.2-1.34-0.35-1.94-0.45 c-0.6-0.1-1.1-0.15-1.5-0.15h-1.64v-3.11h27.08v3.11h-1.5c-0.4,0-0.9,0.05-1.5,0.15c-0.6,0.1-1.25,0.25-1.94,0.45 c-1,0.39-1.92,1.09-2.77,2.08c-0.85,0.99-1.27,2.48-1.27,4.45v28.35l26.63-27.6c0.3-0.3,0.5-0.49,0.6-0.59 c0.09-0.1,0.15-0.2,0.15-0.3h0.15c0-0.1,0.05-0.23,0.15-0.37c0.1-0.15,0.3-0.42,0.6-0.82c0.4-0.39,0.75-0.82,1.05-1.26 c0.3-0.45,0.45-0.91,0.45-1.41c0-0.79-0.4-1.48-1.19-2.08c-0.8-0.6-2.24-0.94-4.34-1.04v-3.11h21.85v3.11 c-0.3,0.1-0.57,0.17-0.82,0.23s-0.52,0.12-0.82,0.22c-0.8,0.3-1.57,0.67-2.32,1.11c-0.75,0.45-1.47,0.92-2.17,1.41 c-0.7,0.5-1.35,0.99-1.95,1.48c-0.6,0.5-1.05,0.89-1.34,1.19l-17.96,16.47l21.4,33.09c0.2,0.3,0.4,0.59,0.6,0.89 c0.2,0.3,0.39,0.6,0.6,0.89c0.9,1.39,1.94,2.52,3.14,3.41c1.19,0.89,2.89,1.53,5.08,1.92v3.12h-25.29v-3.12 c1.59-0.2,2.89-0.52,3.89-0.96c1-0.45,1.5-1.41,1.5-2.89c0-0.2-0.03-0.47-0.08-0.82c-0.05-0.35-0.13-0.72-0.23-1.11 c-0.2-0.3-0.35-0.61-0.45-0.96c-0.1-0.35-0.25-0.62-0.45-0.82l-16.31-26.12l-12.12,12.61v13.95c0,1.98,0.42,3.46,1.27,4.45 c0.85,0.99,1.77,1.68,2.77,2.08c0.7,0.2,1.34,0.35,1.94,0.45s1.1,0.14,1.5,0.14h1.5v3.12h-27.08v-3.12h1.64 c0.4,0,0.9-0.05,1.5-0.14c0.6-0.1,1.25-0.25,1.94-0.45c1-0.39,1.92-1.09,2.77-2.08c0.85-0.99,1.27-2.48,1.27-4.45V785.41z"></path> <path class="st1" d="M1590.77,831.56c0,2.77,0.52,4.97,1.57,6.6c1.04,1.63,2.92,2.45,5.61,2.45h1.19v3.12h-17.36v-6.97h-0.6 c-6.09,3.46-10.68,5.69-13.77,6.68c-3.1,0.99-5.89,1.58-8.38,1.78c-0.3,0-0.62,0-0.97,0c-0.35,0-0.72,0-1.12,0 c-4.69,0-8.21-1.01-10.55-3.04c-2.34-2.02-3.96-4.28-4.86-6.75c-0.4-1.08-0.67-2.15-0.82-3.19c-0.14-1.04-0.22-2.01-0.22-2.89 c0-5.74,2.57-10.41,7.7-14.02c5.14-3.61,10.75-6.65,16.83-9.13c1.29-0.49,2.59-0.99,3.89-1.48c1.29-0.49,2.54-0.99,3.74-1.48 c1.5-0.59,2.7-1.06,3.59-1.41c0.9-0.35,1.69-0.72,2.39-1.11c0.5-0.1,1-0.24,1.5-0.45c0.5-0.2,1.05-0.45,1.65-0.74v-1.93 c0-4.85-0.55-9.17-1.65-12.98c-1.1-3.8-4.44-5.71-10.02-5.71c-3.4,0-5.99,0.59-7.79,1.78c-1.79,1.19-3.09,2.48-3.89,3.86 c-0.7,0.99-1.15,1.95-1.34,2.89c-0.2,0.94-0.35,1.66-0.45,2.15c-0.4,2.08-1.04,3.71-1.94,4.9s-2.39,1.78-4.49,1.78 c-0.3,0-0.58-0.02-0.82-0.08c-0.26-0.05-0.53-0.12-0.82-0.22c-0.9-0.3-1.72-0.89-2.47-1.78c-0.75-0.89-1.12-2.18-1.12-3.86 c0-4.35,2.57-8.24,7.7-11.65c5.14-3.41,11.25-5.12,18.33-5.12c1.1,0,2.35,0.08,3.74,0.23c1.39,0.14,2.84,0.42,4.34,0.81 c2.89,0.79,5.56,2.4,8.01,4.82c2.45,2.43,3.67,6.31,3.67,11.65V831.56z M1581.79,805.74c-0.3,0.1-0.63,0.23-0.97,0.37 c-0.35,0.15-0.72,0.32-1.12,0.52c-7.08,2.97-13.56,6.26-19.45,9.87c-5.89,3.62-8.83,7.94-8.83,12.98c0,0.2,0,0.4,0,0.6 c0,0.2,0.05,0.35,0.15,0.45c0.2,1.98,1.14,3.76,2.84,5.34c1.7,1.58,4.14,2.38,7.33,2.38c1.2,0,2.47-0.15,3.81-0.45 c1.35-0.3,2.67-0.74,3.97-1.33c1.3-0.5,2.6-1.04,3.89-1.63c1.3-0.59,2.54-1.23,3.74-1.93c0.9-0.49,1.74-0.99,2.54-1.48 c0.8-0.49,1.5-0.94,2.1-1.33V805.74z"></path> <path class="st1" d="M1605.43,840.61c2.59-0.39,4.64-1.23,6.13-2.52c1.5-1.28,2.7-2.67,3.59-4.16c0.2-0.3,0.37-0.59,0.52-0.89 c0.15-0.3,0.27-0.6,0.37-0.89l9.43-19.44v-0.74c-0.9-0.2-1.95-0.5-3.14-0.89c-1.2-0.39-2.45-0.94-3.74-1.63 c-2.3-1.28-4.39-3.17-6.28-5.63c-1.9-2.48-2.84-5.79-2.84-9.95c0-4.65,1.65-8.93,4.93-12.83c3.29-3.91,9.53-5.86,18.71-5.86h35.16 v3.11h-1.5c-0.4,0-0.88,0.05-1.43,0.15c-0.54,0.1-1.07,0.25-1.57,0.45c-1,0.39-1.92,1.09-2.77,2.08 c-0.85,0.99-1.28,2.48-1.28,4.45v48.08c0,1.98,0.42,3.46,1.28,4.45c0.85,0.99,1.77,1.68,2.77,2.08c0.5,0.2,1.03,0.35,1.57,0.45 c0.55,0.1,1.03,0.14,1.43,0.14h1.5v3.12h-25.89v-3.12h1.35c0.39,0,0.87-0.05,1.42-0.14c0.54-0.1,1.07-0.25,1.57-0.45 c1-0.39,1.92-1.09,2.77-2.08c0.85-0.99,1.28-2.48,1.28-4.45v-20.78h-15.26l-14.67,31.01h-15.41V840.61z M1650.77,787.93 c0-0.09,0-0.22,0-0.37c0-0.14,0-0.27,0-0.37c-0.1-1.68-0.7-3.21-1.8-4.6c-1.1-1.39-3.74-2.08-7.93-2.08c-0.1,0-0.23,0-0.38,0 c-0.14,0-0.32,0-0.52,0c-0.1,0-0.25,0-0.45,0c-0.2,0-0.35,0-0.45,0c-0.2,0-0.37,0-0.52,0s-0.32,0-0.52,0 c-0.8,0-1.68,0.03-2.62,0.08c-0.95,0.05-1.87,0.13-2.77,0.23c-3.09,0.3-5.94,1.29-8.53,2.97c-2.6,1.68-3.89,4.89-3.89,9.65 c0,4.75,1.52,8.23,4.56,10.46c3.04,2.23,6.91,3.34,11.6,3.34h14.21V787.93z"></path> </g> </g> </svg> 